<svg xmlns="http://www.w3.org/2000/svg" width="18" height="14"><path d="M 0 5 C 0 3.895 0.895 3 2 3 L 2.93 3 C 3.598 3 4.223 2.666 4.594 2.109 L 5.406 0.891 C 5.777 0.334 6.402 0 7.07 0 L 10.93 0 C 11.598 0 12.223 0.334 12.594 0.891 L 13.406 2.109 C 13.777 2.666 14.402 3 15.07 3 L 16 3 C 17.105 3 18 3.895 18 5 L 18 12 C 18 13.105 17.105 14 16 14 L 2 14 C 0.895 14 0 13.105 0 12 Z M 9 3.5 C 6.515 3.5 4.5 5.515 4.5 8 C 4.5 10.485 6.515 12.5 9 12.5 C 11.485 12.5 13.5 10.485 13.5 8 C 13.5 5.515 11.485 3.5 9 3.5 Z M 6 8 C 6 6.343 7.343 5 9 5 C 10.657 5 12 6.343 12 8 C 12 9.657 10.657 11 9 11 C 7.343 11 6 9.657 6 8 Z" fill="rgb(255, 255, 255)"></path></svg>