<svg xmlns="http://www.w3.org/2000/svg" width="20" height="20"><path d="M 1.837 1.837 C 2.203 1.471 2.797 1.471 3.163 1.837 L 10 8.674 L 16.837 1.837 C 17.203 1.471 17.797 1.471 18.163 1.837 C 18.529 2.203 18.529 2.797 18.163 3.163 L 11.326 10 L 18.163 16.837 C 18.529 17.203 18.529 17.797 18.163 18.163 C 17.797 18.529 17.203 18.529 16.837 18.163 L 10 11.326 L 3.163 18.163 C 2.797 18.529 2.203 18.529 1.837 18.163 C 1.471 17.797 1.471 17.203 1.837 16.837 L 8.674 10 L 1.837 3.163 C 1.471 2.797 1.471 2.203 1.837 1.837 Z" fill="rgb(54, 54, 66)"></path></svg>