<svg xmlns="http://www.w3.org/2000/svg" width="20" height="20"><path d="M 0 10 C 0 4.477 4.477 0 10 0 C 15.523 0 20 4.477 20 10 C 20 15.523 15.523 20 10 20 C 4.477 20 0 15.523 0 10 Z M 13.41 7.81 C 13.657 7.464 13.577 6.984 13.231 6.737 C 12.885 6.49 12.405 6.57 12.158 6.916 L 8.84 11.561 L 7.174 9.896 C 6.874 9.595 6.387 9.595 6.086 9.896 C 5.786 10.196 5.786 10.683 6.086 10.983 L 8.394 13.291 C 8.554 13.451 8.776 13.532 9.001 13.514 C 9.227 13.495 9.432 13.378 9.564 13.194 Z" fill="rgb(255, 255, 255)"></path></svg>