<svg xmlns="http://www.w3.org/2000/svg" width="20" height="16"><path d="M 1 3.25 C 1 2.007 2.007 1 3.25 1 L 16.75 1 C 17.993 1 19 2.007 19 3.25 L 19 12.75 C 19 13.993 17.993 15 16.75 15 L 3.25 15 C 2.007 15 1 13.993 1 12.75 Z M 2.5 9.061 L 2.5 12.75 C 2.5 13.164 2.836 13.5 3.25 13.5 L 16.75 13.5 C 17.164 13.5 17.5 13.164 17.5 12.75 L 17.5 10.061 L 15.28 7.841 C 14.987 7.548 14.513 7.548 14.22 7.841 L 12.311 9.75 L 12.78 10.22 C 13.073 10.513 13.073 10.987 12.78 11.28 C 12.487 11.573 12.013 11.573 11.72 11.28 L 6.53 6.091 C 6.237 5.798 5.763 5.798 5.47 6.091 Z M 12 5 C 12 5.552 11.552 6 11 6 C 10.448 6 10 5.552 10 5 C 10 4.448 10.448 4 11 4 C 11.552 4 12 4.448 12 5 Z" fill="rgb(255, 255, 255)"></path></svg>