<svg width="52" height="28" viewBox="0 0 52 28" fill="none" xmlns="http://www.w3.org/2000/svg">
<g clip-path="url(#clip0_20_180)">
<path d="M3.10254 14.1435V27.4586L17.049 14.2977C17.1258 14.2251 17.2014 14.1515 17.2772 14.0779C17.6415 13.724 19.4889 12.1302 21.3739 14.1434V3.06901C21.3739 2.22772 21.3372 1.3066 20.771 0.678956C20.1317 -0.0296939 18.8722 -0.414659 17.4726 0.699736C14.8065 2.8224 3.10254 14.1435 3.10254 14.1435Z" fill="#443FB6"/>
<path d="M21.3739 14.1435V27.4586L35.3204 14.2977C35.3972 14.2251 35.4728 14.1515 35.5485 14.0779C35.9129 13.724 37.7602 12.1302 39.6453 14.1434V3.06901C39.6453 2.22772 39.6085 1.3066 39.0423 0.678956C38.4031 -0.0296939 37.1436 -0.414659 35.744 0.699736C33.0781 2.8224 21.3741 14.1435 21.3741 14.1435H21.3739Z" fill="#443FB6"/>
<mask id="mask0_20_180" style="mask-type:alpha" maskUnits="userSpaceOnUse" x="32" y="14" width="15" height="14">
<g clip-path="url(#clip1_20_180)">
<path d="M39.6452 14.0996C40.484 18.2422 42.1605 19.9072 46.3965 20.7402C42.1595 21.5732 40.483 23.2383 39.6452 27.3808C38.8065 23.2383 37.1299 21.5723 32.8939 20.7402C37.1309 19.9072 38.8074 18.2422 39.6452 14.0996Z" fill="white"/>
</g>
</mask>
<g mask="url(#mask0_20_180)">
<g clip-path="url(#clip2_20_180)">
<path d="M46.3965 14.0996H32.8939V27.4572H46.3965V14.0996Z" fill="white"/>
<path d="M46.3965 14.0996H32.8939V27.4572H46.3965V14.0996Z" fill="url(#paint0_linear_20_180)"/>
<g filter="url(#filter0_f_20_180)">
<ellipse cx="7.71657" cy="3.89526" rx="7.71657" ry="3.89526" transform="matrix(0.833024 -0.553237 0.561531 0.827456 33.9741 27.4473)" fill="#FF58E4"/>
<ellipse cx="4.68439" cy="3.19593" rx="4.68439" ry="3.19593" transform="matrix(0.898661 -0.438643 0.446325 0.894871 31.8812 15.8721)" fill="#00F0FF"/>
</g>
</g>
</g>
</g>
<defs>
<filter id="filter0_f_20_180" x="15.363" y="-4.55303" width="51.7268" height="54.0123" filterUnits="userSpaceOnUse" color-interpolation-filters="sRGB">
<feFlood flood-opacity="0" result="BackgroundImageFix"/>
<feBlend mode="normal" in="SourceGraphic" in2="BackgroundImageFix" result="shape"/>
<feGaussianBlur stdDeviation="8.85415" result="effect1_foregroundBlur_20_180"/>
</filter>
<linearGradient id="paint0_linear_20_180" x1="39.6452" y1="14.0996" x2="39.6452" y2="27.4572" gradientUnits="userSpaceOnUse">
<stop offset="0.325" stop-color="#D444BA"/>
<stop offset="1" stop-color="#FA8EF6"/>
</linearGradient>
<clipPath id="clip0_20_180">
<rect width="43.7949" height="28" fill="white" transform="translate(3.10254)"/>
</clipPath>
<clipPath id="clip1_20_180">
<rect width="13.5026" height="13.3576" fill="white" transform="translate(32.8939 14.0996)"/>
</clipPath>
<clipPath id="clip2_20_180">
<rect width="13.5026" height="13.3576" fill="white" transform="translate(32.8939 14.0996)"/>
</clipPath>
</defs>
</svg>
