<svg xmlns="http://www.w3.org/2000/svg" width="16" height="18"><path d="M 5 2.5 C 5 1.672 5.672 1 6.5 1 L 10.379 1 C 10.777 1 11.158 1.158 11.439 1.439 L 14.561 4.561 C 14.842 4.842 15 5.223 15 5.621 L 15 11.5 C 15 12.328 14.328 13 13.5 13 L 12.5 13 L 12.5 9.621 C 12.5 8.826 12.184 8.063 11.621 7.5 L 8.5 4.379 C 7.937 3.816 7.174 3.5 6.379 3.5 L 5 3.5 Z" fill="rgb(255, 255, 255)"></path><path d="M 2.5 5 C 1.672 5 1 5.672 1 6.5 L 1 15.5 C 1 16.328 1.672 17 2.5 17 L 9.5 17 C 10.328 17 11 16.328 11 15.5 L 11 9.621 C 11 9.223 10.842 8.842 10.561 8.561 L 7.439 5.439 C 7.158 5.158 6.777 5 6.379 5 Z" fill="rgb(255, 255, 255)"></path></svg>