<svg xmlns="http://www.w3.org/2000/svg" width="20" height="20"><path d="M 10 1.75 C 10.414 1.75 10.75 2.086 10.75 2.5 L 10.75 9.25 L 17.5 9.25 C 17.914 9.25 18.25 9.586 18.25 10 C 18.25 10.414 17.914 10.75 17.5 10.75 L 10.75 10.75 L 10.75 17.5 C 10.75 17.914 10.414 18.25 10 18.25 C 9.586 18.25 9.25 17.914 9.25 17.5 L 9.25 10.75 L 2.5 10.75 C 2.086 10.75 1.75 10.414 1.75 10 C 1.75 9.586 2.086 9.25 2.5 9.25 L 9.25 9.25 L 9.25 2.5 C 9.25 2.086 9.586 1.75 10 1.75 Z" fill="rgb(255, 255, 255)"></path></svg>